<?xml version="1.0" encoding="UTF-8" standalone="no"?>
<!-- Created with Inkscape (http://www.inkscape.org/) -->

<svg
   width="200"
   height="200"
   viewBox="0 0 52.916666 52.916668"
   version="1.1"
   id="svg297"
   inkscape:version="1.2.2 (b0a8486, 2022-12-01)"
   sodipodi:docname="icon.svg"
   xmlns:inkscape="http://www.inkscape.org/namespaces/inkscape"
   xmlns:sodipodi="http://sodipodi.sourceforge.net/DTD/sodipodi-0.dtd"
   xmlns="http://www.w3.org/2000/svg"
   xmlns:svg="http://www.w3.org/2000/svg">
  <sodipodi:namedview
     id="namedview299"
     pagecolor="#ffffff"
     bordercolor="#666666"
     borderopacity="1.0"
     inkscape:showpageshadow="2"
     inkscape:pageopacity="0.0"
     inkscape:pagecheckerboard="0"
     inkscape:deskcolor="#d1d1d1"
     inkscape:document-units="px"
     showgrid="false"
     inkscape:zoom="1.1893044"
     inkscape:cx="380.4745"
     inkscape:cy="8.8286901"
     inkscape:window-width="1358"
     inkscape:window-height="789"
     inkscape:window-x="0"
     inkscape:window-y="23"
     inkscape:window-maximized="0"
     inkscape:current-layer="layer1" />
  <defs
     id="defs294" />
  <g
     inkscape:label="Layer 1"
     inkscape:groupmode="layer"
     id="layer1"
     transform="translate(-11.07589,-10.21568)">
    <g
       id="g4498"
       inkscape:label="eagle"
       style="fill:#000000;fill-opacity:1"
       transform="matrix(0.52567049,0,0,0.62485822,-17.978516,-18.866905)">
      <path
         style="display:inline;fill:#000000;fill-opacity:1;stroke-width:0.264484"
         d="m 134.22504,76.328818 5.50659,-3.503176 6.2858,-8.255888 6.28603,-8.255894 v -0.15771 -0.15771 l -2.19868,1.785819 -2.19867,1.785819 -8.44549,6.925097 -8.44548,6.925109 -2.08111,3.580114 -2.08111,3.580105 -0.10303,0.244356 -0.10344,0.244356 1.03637,-0.618702 1.03639,-0.618723 z"
         id="path4488" />
      <path
         style="display:inline;fill:#000000;fill-opacity:1;stroke-width:0.264484"
         d="m 84.289397,80.653308 -0.384848,-0.590627 -1.844415,-3.257785 -1.844392,-3.257776 -9.593925,-7.876109 -9.593902,-7.876113 -1.31619,-1.07235 -1.31619,-1.072359 0.250217,0.419685 0.250194,0.419706 6.262691,8.188114 6.26268,8.18814 5.449037,3.467169 5.449035,3.467178 1.08015,0.717087 1.080162,0.717108 0.09738,0.0049 0.09738,0.0049 -0.384858,-0.590625 z"
         id="path4486" />
      <path
         style="display:inline;fill:#000000;fill-opacity:1;stroke-width:0.264484"
         d="m 125.98708,88.290479 7.26166,-6.603457 2.0833,-1.950459 2.08352,-1.950459 -0.35118,0.0882 -0.35117,0.0882 -6.31657,3.748019 -6.31632,3.747998 -0.50483,0.714504 -0.50484,0.714483 -1.99919,3.412505 -1.99896,3.412495 -0.31655,0.590625 -0.31654,0.590646 h 0.14311 0.14312 z"
         id="path4478" />
      <path
         style="display:inline;fill:#000000;fill-opacity:1;stroke-width:0.264484"
         d="m 92.322297,94.303297 -0.304278,-0.590616 -2.390494,-4.068755 -2.390506,-4.068745 -6.440695,-3.806253 -6.440694,-3.806254 -0.267941,-0.09009 -0.267965,-0.09009 1.737475,1.665069 1.737452,1.665069 2.126764,1.970388 2.126739,1.970388 3.197975,2.902772 3.197975,2.902771 2.209857,2.01747 2.20987,2.01747 h 0.13136 0.131384 z"
         id="path4476" />
      <path
         style="display:inline;fill:#000000;fill-opacity:1;stroke-width:0.264484"
         d="m 112.59842,96.468924 6.73613,-11.41876 1.23858,-2.100004 1.23856,-2.099979 2.8741,-4.85625 2.87433,-4.856261 6.27629,-4.987498 6.2763,-4.987498 7.36129,-5.871698 7.36107,-5.871718 0.39786,-0.370188 0.39789,-0.370188 -1.5971,0.643041 -1.59709,0.643041 -14.79055,6.069359 -14.79077,6.069347 -0.31673,0.317016 -0.31672,0.316995 -3.57222,6.299997 -3.57224,6.300007 -1.54246,2.708901 -1.54223,2.708885 -0.18878,-0.215145 -0.18877,-0.215145 -1.50493,-4.42809 -1.50471,-4.428087 0.1157,-0.18459 0.1159,-0.18459 1.90034,-0.734412 1.90054,-0.734433 -0.2435,-0.239757 -0.24326,-0.239736 -3.29996,-1.837815 -3.29973,-1.837794 -1.78318,0.85827 -1.78317,0.858291 -1.26663,6.303843 -1.266633,6.303845 -0.171808,0.481845 -0.171814,0.481845 -5.275651,-9.275753 -5.275671,-9.275828 -1.905439,-0.763589 -1.905452,-0.763598 -3.331211,-1.377325 -3.331213,-1.377331 -8.128185,-3.33498 -8.128173,-3.334994 -3.197975,-1.281168 -3.197975,-1.281189 0.666241,0.545937 0.666239,0.545937 0.799498,0.655893 0.799501,0.655914 7.062189,5.607634 7.06219,5.607641 3.197976,2.555973 3.197952,2.555981 2.131992,1.68567 2.131978,1.68567 0.437943,0.562422 0.437968,0.562422 7.513962,12.73125 7.513961,12.73125 3.22061,5.453825 3.22059,5.45381 0.18506,-0.20391 0.18507,-0.20391 z"
         id="path4472" />
      <path
         style="display:inline;fill:#000000;fill-opacity:1;stroke-width:0.264484"
         d="m 115.22408,124.13975 2.16806,-3.1729 v -0.17514 -0.17514 l -3.10771,-4.13316 -3.10769,-4.13316 -1.1975,-1.44375 -1.19748,-1.44375 0.18219,0.73191 0.18197,0.73191 1.60554,7.66809 1.60532,7.66809 0.15595,0.73828 0.15572,0.73827 0.19367,-0.21329 0.1939,-0.21328 z"
         id="path4470" />
      <path
         style="display:inline;fill:#000000;fill-opacity:1;stroke-width:0.264484"
         d="m 98.747492,124.93215 0.551054,-2.60697 1.315614,-6.28082 1.31558,-6.28081 -0.0777,-0.0764 -0.0777,-0.0764 -3.742237,4.91353 -3.74224,4.91352 -0.465781,0.71251 -0.46578,0.71249 2.336463,3.41952 2.336452,3.41952 0.08262,-0.0813 0.0825,-0.0813 z"
         id="path4468" />
      <path
         style="display:inline;fill:#000000;fill-opacity:1;stroke-width:0.264484"
         d="m 108.7406,129.2158 -0.13368,-0.59062 -1.34183,-7.0875 -1.34182,-7.0875 -0.15378,-0.74065 -0.15401,-0.74065 -0.11056,0.10899 -0.11055,0.10899 -1.5964,7.79569 -1.59626,7.79575 v 0.51406 0.51408 h 3.33647 3.3361 z"
         id="path4466" />
    </g>
  </g>
</svg>
